<?xml version="1.0" encoding="utf-8"?>
<!-- Generator: Adobe Illustrator 16.0.0, SVG Export Plug-In . SVG Version: 6.00 Build 0)  -->
<!DOCTYPE svg PUBLIC "-//W3C//DTD SVG 1.1//EN" "http://www.w3.org/Graphics/SVG/1.1/DTD/svg11.dtd">
<svg version="1.1" id="Layer_1" xmlns="http://www.w3.org/2000/svg" xmlns:xlink="http://www.w3.org/1999/xlink" x="0px" y="0px"
	 width="123px" height="93px" viewBox="0 0 123 93" enable-background="new 0 0 123 93" xml:space="preserve">
<g id="icono1" transform="translate(-1.153)">
	<g id="Group_1" transform="translate(24.153)">
		<path id="Path_1" fill="#E08709" d="M56.055,37.526v-18.6C56.055,8.491,46.811,0,35.447,0S14.838,8.491,14.838,18.928v18.6H0V93
			h72.54V37.526H56.055z M18.135,18.926c0-8.638,7.765-15.665,17.311-15.665c9.546,0,17.311,7.028,17.311,15.665v18.6H18.135V18.926
			z M69.247,89.736H3.299v-6.525h65.948V89.736z M3.299,79.947V40.79h65.948v39.157H3.299z"/>
		<path id="Path_2" fill="#E08709" d="M36.27,50.579c-3.621-0.015-6.57,2.902-6.595,6.522v9.791
			c-0.044,3.643,2.872,6.631,6.514,6.676c3.642,0.045,6.631-2.871,6.675-6.514c0.002-0.053,0.002-0.107,0-0.162v-9.791
			C42.84,53.481,39.89,50.564,36.27,50.579L36.27,50.579z M39.57,66.895c0.001,1.822-1.476,3.301-3.298,3.303
			c-1.822,0.001-3.301-1.476-3.302-3.299c0,0,0-0.002,0-0.004v-9.793c-0.001-1.822,1.475-3.301,3.298-3.302
			c1.822-0.001,3.3,1.476,3.302,3.298c0,0.002,0,0.003,0,0.004V66.895z"/>
	</g>
</g>
</svg>
